#tb 0: 1/25
0,          0,          0,        1,   304128, 0xdd500eb7
0,          1,          1,        1,   304128, 0x34c0b73c
0,          2,          2,        1,   304128, 0xf346473f
0,          3,          3,        1,   304128, 0x1524e10a
0,          4,          4,        1,   304128, 0xac0266ee
0,          5,          5,        1,   304128, 0xb876c8c8
0,          6,          6,        1,   304128, 0x51b3b18c
0,          7,          7,        1,   304128, 0xd890c34e
0,          8,          8,        1,   304128, 0x1fd1d62f
0,          9,          9,        1,   304128, 0x008f4367
0,         10,         10,        1,   304128, 0x6df9777b
0,         11,         11,        1,   304128, 0x330b04fe
0,         12,         12,        1,   304128, 0x44f72cea
0,         13,         13,        1,   304128, 0xfdccafa4
0,         14,         14,        1,   304128, 0x090e7ef5
0,         15,         15,        1,   304128, 0xe29bbd23
0,         16,         16,        1,   304128, 0xe54b41f4
0,         17,         17,        1,   304128, 0x86f6238d
0,         18,         18,        1,   304128, 0xca631953
0,         19,         19,        1,   304128, 0xd954eb97
0,         20,         20,        1,   304128, 0x91ff0866
0,         21,         21,        1,   304128, 0xeddc2a4e
0,         22,         22,        1,   304128, 0xba556a4e
0,         23,         23,        1,   304128, 0xd9b94e38
0,         24,         24,        1,   304128, 0x6d801990
0,         25,         25,        1,   304128, 0xbd0a32c7
0,         26,         26,        1,   304128, 0x6e6053b4
0,         27,         27,        1,   304128, 0x11f6f4bc
0,         28,         28,        1,   304128, 0xe678764b
0,         29,         29,        1,   304128, 0x8b727028
0,         30,         30,        1,   304128, 0x6a5dff75
0,         31,         31,        1,   304128, 0xa0e39bb2
0,         32,         32,        1,   304128, 0x149b3252
0,         33,         33,        1,   304128, 0xebfcfca8
0,         34,         34,        1,   304128, 0x3abcce42
0,         35,         35,        1,   304128, 0xc6047176
0,         36,         36,        1,   304128, 0x666c3ee7
0,         37,         37,        1,   304128, 0x43397ca4
0,         38,         38,        1,   304128, 0x660fdc05
0,         39,         39,        1,   304128, 0x4367267f
0,         40,         40,        1,   304128, 0xbdfb1790
0,         41,         41,        1,   304128, 0x2b2edc22
0,         42,         42,        1,   304128, 0x3c44d96b
0,         43,         43,        1,   304128, 0x86325d85
0,         44,         44,        1,   304128, 0x3583469b
0,         45,         45,        1,   304128, 0xb8b9083d
0,         46,         46,        1,   304128, 0x8876826c
0,         47,         47,        1,   304128, 0x201188f5
0,         48,         48,        1,   304128, 0x7a75f414
0,         49,         49,        1,   304128, 0x98f258f9
